<svg width="61" height="54" viewBox="0 0 61 54" fill="none" xmlns="http://www.w3.org/2000/svg">
<rect width="61" height="54" rx="7" fill="#1F2525"/>
<path d="M22.3655 27L22.3655 28L23.3655 28V27H22.3655ZM37 27C37 27.5523 37.4477 28 38 28C38.5523 28 39 27.5523 39 27H37ZM20.466 27V28H20.466L20.466 27ZM20.466 35V36H20.466L20.466 35ZM23.3655 24.913C23.3655 22.9259 24.1935 21.4836 25.4264 20.5144C26.6857 19.5246 28.4108 19 30.1828 19C31.9547 19 33.6799 19.5246 34.9391 20.5144C36.172 21.4836 37 22.9259 37 24.913H39C39 22.2914 37.8737 20.2773 36.1751 18.9421C34.5029 17.6276 32.3194 17 30.1828 17C28.0461 17 25.8626 17.6276 24.1904 18.9421C22.4919 20.2773 21.3655 22.2914 21.3655 24.913H23.3655ZM21.3655 24.913V27H23.3655V24.913H21.3655ZM37 24.913V27H39V24.913H37ZM20.466 26C19.1714 26 18.2795 26.8271 17.7614 27.7674C17.2477 28.6997 17.0106 29.8736 17.0003 30.9909C16.9902 32.107 17.2055 33.2877 17.7181 34.2285C18.2415 35.1891 19.1489 36 20.466 36V34C20.1028 34 19.7682 33.8109 19.4743 33.2715C19.1696 32.7123 18.9922 31.893 19.0003 31.0091C19.0083 30.1264 19.2003 29.3003 19.5131 28.7326C19.8215 28.1729 20.1534 28 20.466 28V26ZM20.466 28L22.3655 28L22.3655 26L20.466 26L20.466 28ZM20.466 36L22.3655 36L22.3655 34L20.466 34L20.466 36Z" fill="#CCC4C4"/>
<path d="M37.6859 27H36.6859V28L37.6859 28L37.6859 27ZM39.5916 27V26H39.5916L39.5916 27ZM39.5916 35V34H39.5916L39.5916 35ZM37.6859 34C37.1336 34 36.6859 34.4477 36.6859 35C36.6859 35.5523 37.1336 36 37.6859 36L37.6859 34ZM23 24.913C23 22.9272 23.8301 21.4851 25.0677 20.5154C26.3318 19.525 28.0638 19 29.8429 19C31.6221 19 33.3541 19.525 34.6182 20.5154C35.8558 21.4851 36.6859 22.9273 36.6859 24.913H38.6859C38.6859 22.2901 37.5552 20.2758 35.8517 18.9411C34.1747 17.6272 31.9853 17 29.8429 17C27.7006 17 25.5112 17.6272 23.8342 18.9411C22.1307 20.2758 21 22.2901 21 24.913H23ZM21 24.913V27H23V24.913H21ZM36.6859 24.913V27H38.6859V24.913H36.6859ZM39.5916 28C40.3955 28 40.9598 28.3376 41.3508 28.8538C41.7629 29.3979 42 30.174 42 31C42 31.826 41.7629 32.602 41.3508 33.1462C40.9598 33.6623 40.3955 34 39.5916 34V36C41.06 36 42.1999 35.3376 42.9451 34.3538C43.669 33.3979 44 32.174 44 31C44 29.826 43.669 28.602 42.9451 27.6462C42.1999 26.6623 41.06 26 39.5916 26V28ZM37.6859 28L39.5916 28L39.5916 26L37.6859 26L37.6859 28ZM37.6859 36L39.5916 36L39.5916 34L37.6859 34L37.6859 36Z" fill="#CCC4C4"/>
<path d="M29 36C29 36.5523 29.4477 37 30 37C30.5523 37 31 36.5523 31 36L29 36ZM30.7071 25.2929C30.3166 24.9024 29.6834 24.9024 29.2929 25.2929L22.9289 31.6569C22.5384 32.0474 22.5384 32.6805 22.9289 33.0711C23.3195 33.4616 23.9526 33.4616 24.3431 33.0711L30 27.4142L35.6569 33.0711C36.0474 33.4616 36.6805 33.4616 37.0711 33.0711C37.4616 32.6805 37.4616 32.0474 37.0711 31.6569L30.7071 25.2929ZM31 36L31 26L29 26L29 36L31 36Z" fill="#CCC4C4"/>
</svg>
